<svg xmlns="http://www.w3.org/2000/svg" id="Layer_2" viewBox="0 0 472.44 67.82"><defs><style>.cls-1{fill:#009cde}.cls-3{fill:#373a36}</style></defs><g id="Layer_2-2"><g id="Layer_1-2"><path d="M84.27 55.53c-.9 0-1.24-.41-1.24-1.38V10.02c0-.96.34-1.38 1.24-1.38h12.21c11.86 0 15.65 4.41 15.65 10v4.35c0 3.58-1.65 6.34-5.79 7.93 5.24 1.45 7.79 4.41 7.79 8.41v5.86c0 5.66-3.79 10.34-15.65 10.34zm5.44-41.3v14.62h7.24c5.72 0 8.48-2.21 8.48-6v-3.17c0-3.79-2.75-5.45-8.96-5.45zm0 19.86v15.86h8.76c6.21 0 8.96-2.14 8.96-5.93v-4.21c0-3.45-2.76-5.72-8.96-5.72zM131.3 49.81h17.65c.9 0 1.31.28 1.31 1.24v3.17c0 .96-.41 1.31-1.31 1.31h-23.3c-.76 0-1.1-.48-1.1-1.38V10.02c0-.96.34-1.38 1.31-1.38h4.21c.9 0 1.24.41 1.24 1.38v39.79ZM164.33 44.36c0 3.72 2.76 6 8.89 6s9.03-2.28 9.03-6V10.02c0-.96.34-1.38 1.24-1.38h4.2c.97 0 1.24.41 1.24 1.38v35.44c0 5.65-3.86 10.62-15.72 10.62s-15.65-4.96-15.65-10.62V10.02c0-.96.41-1.38 1.31-1.38h4.21c.9 0 1.24.41 1.24 1.38v34.34ZM202.88 55.53c-.9 0-1.24-.41-1.24-1.38V10.02c0-.96.34-1.38 1.24-1.38h23.58c.89 0 1.31.35 1.31 1.31v3.1c0 .96-.42 1.31-1.31 1.31h-18.13v13.93h16.89c.97 0 1.38.34 1.38 1.31v2.96c0 .9-.41 1.31-1.38 1.31h-16.89V49.8h18.89c.9 0 1.31.28 1.31 1.24v3.17c0 .96-.41 1.31-1.31 1.31h-24.34Z" class="cls-1"/><path d="M262.45 19.61c0-3.72-2.27-5.86-8.34-5.86s-8.34 2.14-8.34 5.86v1.38c0 3.17 2.07 4.07 3.52 4.62l12.55 4.76c4.13 1.59 7.58 4.27 7.58 9.38v5.72c0 5.65-3.93 10.62-15.44 10.62s-15.51-4.96-15.51-10.62v-4c0-.96.41-1.38 1.31-1.38h4.07c.9 0 1.24.41 1.24 1.38v3.11c0 3.72 2.62 5.86 8.83 5.86s8.9-2.14 8.9-5.86v-3.24c0-3.45-3.1-4.62-5.79-5.65l-11.65-4.48c-3.03-1.17-6.14-4.27-6.14-8.55v-3.93c0-5.65 3.58-10.62 14.82-10.62s14.96 4.96 14.96 10.62v3.04c0 .9-.35 1.31-1.24 1.31h-4.07c-.97 0-1.24-.41-1.24-1.31v-2.14zM311 45.46c0 4.62-2.62 8.76-10 10.13l8.48 7.58c.69.62.76 1.24.14 1.86l-2.14 2.34c-.48.55-1.17.62-1.79.07l-12.34-11.45c-10.34-.48-13.72-5.17-13.72-10.55V18.68c0-5.65 3.86-10.62 15.65-10.62S311 13.02 311 18.68zm-24.62-.96c0 3.79 2.76 6 8.9 6s8.96-2.2 8.96-6V19.68c0-3.79-2.76-6-8.96-6s-8.9 2.21-8.9 6zM329.21 44.36c0 3.72 2.76 6 8.9 6s9.03-2.28 9.03-6V10.02c0-.96.34-1.38 1.24-1.38h4.21c.97 0 1.24.41 1.24 1.38v35.44c0 5.65-3.86 10.62-15.72 10.62s-15.65-4.96-15.65-10.62V10.02c0-.96.41-1.38 1.31-1.38h4.21c.9 0 1.24.41 1.24 1.38v34.34ZM381.13 8.64c.9 0 1.38.41 1.65 1.31l13.38 44.27c.28.83-.07 1.31-1.03 1.31h-4.34c-.9 0-1.31-.48-1.52-1.31l-3.24-10.69h-14.55l-3.17 10.69c-.21.83-.62 1.31-1.52 1.31h-4c-.9 0-1.24-.48-.97-1.31L375.2 9.95c.28-.89.76-1.31 1.66-1.31zm-.41 16.97c-.83-2.55-1.79-9.31-1.86-10.07-.14.62-1.03 6.96-1.93 9.93L373 38.16h11.58zM411.27 36.98v17.17c0 .96-.27 1.38-1.24 1.38h-4.21c-.9 0-1.24-.41-1.24-1.38V10.02c0-.96.34-1.38 1.24-1.38h14c11.86 0 15.65 4.96 15.65 10.62v7.17c0 4.21-2.14 8-8.07 9.65l8.28 18.07c.34.82-.28 1.38-1.24 1.38h-4.14c-.96 0-1.1-.55-1.51-1.38L421 36.98zm0-22.61v16.89h8.55c6.21 0 8.96-2.21 8.96-6v-4.89c0-3.72-2.76-6-8.96-6zM446.79 55.53c-.9 0-1.24-.41-1.24-1.38V10.02c0-.96.34-1.38 1.24-1.38h23.58c.9 0 1.31.35 1.31 1.31v3.1c0 .96-.41 1.31-1.31 1.31h-18.13v13.93h16.89c.97 0 1.38.34 1.38 1.31v2.96c0 .9-.41 1.31-1.38 1.31h-16.89V49.8h18.89c.9 0 1.31.28 1.31 1.24v3.17c0 .96-.41 1.31-1.31 1.31h-24.34Z" class="cls-3"/><path d="M0 0h64.63v64.63H0z" class="cls-1"/><path d="M10.26 10.26h44.12v44.12H10.26z" style="fill:#fff"/></g></g></svg>