<svg xmlns="http://www.w3.org/2000/svg" width="782.51343" height="200.0005" viewBox="0 0 782.51343 200.0005"><path d="M130.092 353.026h-2.389l1.15-.965c.399.336.823.65 1.239.965M102.225 349.67c4.24.017 5.521-8.264 8.262-3.75l-.265 1.655c5.909-4.796 8.109-2.976 9.884-.246 1.811 2.708 3.365 6.092 8.486 4.64a8.043 8.043 0 0 0-1.028 1.058H98.007v-5.92c.424.093.842.194 1.247.307 1.365.435 2.528 1.067 2.971 2.257M98.008 328.672v-.17a.386.386 0 0 0 .096.093c-.036.022-.063.05-.096.077M98.008 327.43v-2.419c.558.345.192 1.5 0 2.419" style="fill:#763d98;fill-opacity:1;fill-rule:nonzero;stroke:none;stroke-width:2.73573" transform="matrix(1.33333 0 0 -1.33333 -130.676 499.501)"/><path d="M103.331 265.413c-1.712 1.002-3.463 1.948-5.323 2.484v-2.484z" style="fill:#00a29f;fill-opacity:1;fill-rule:nonzero;stroke:none;stroke-width:2.73573" transform="matrix(1.33333 0 0 -1.33333 -130.676 499.501)"/><path d="M200.374 309.332a99.94 99.94 0 0 0-7.52 5.439c-1.757-.947-3.054-2.235-4.19-3.666-.612-.772-1.19-1.576-1.794-2.361 1.79.303 3.491.966 5.07 2.227 2.495-.851 5.392-1.3 8.434-1.639M250.963 284.876l5.54 4.976c-4.686.602-9.391 1.42-14.094 2.452 2.47-2.624 3.915-5.4 8.554-7.428" style="fill:#fac802;fill-opacity:1;fill-rule:nonzero;stroke:none;stroke-width:2.73573" transform="matrix(1.33333 0 0 -1.33333 -130.676 499.501)"/><path d="M264.674 349.273c1.125.024 2.29.052 3.447.073 1.16.033 2.312.033 3.42-.112 2.21-.276 4.227-1.151 5.756-3.13a4.04 4.04 0 0 0 .35 1.631c-.008-.59-.014-1.163-.02-1.745 8.4-1.01 16.965-2.908 23.6-3.762 5.867 3.294 11.68 4.033 17.426 4.172v6.626h-61.986c1.192-3.42 4.39-3.871 8.007-3.753" style="fill:#0066b3;fill-opacity:1;fill-rule:nonzero;stroke:none;stroke-width:2.73573" transform="matrix(1.33333 0 0 -1.33333 -130.676 499.501)"/><path d="M273.506 281.766c.069-.01.137-.027.203-.035.5.53.996 1.083 1.496 1.598-.563-.52-1.135-1.046-1.699-1.563M264.223 289.047c-2.326.188-4.651.415-6.99.705 1.27-1.302 2.766-2.478 4.402-3.52.859.938 1.718 1.884 2.588 2.815M269.689 286.503l1.19 1.122c-.662.314-1.319.67-1.973 1.083-.768.044-1.545.118-2.32.167l-3.468-3.502-.017-.016a30.886 30.886 0 0 1 3.51-1.688z" style="fill:#fac802;fill-opacity:1;fill-rule:nonzero;stroke:none;stroke-width:2.73573" transform="matrix(1.33333 0 0 -1.33333 -130.676 499.501)"/><path d="M177.695 303.356a230.268 230.268 0 0 0-5.79-5.77c-1.985-1.874-4.092-3.644-6.193-5.408-2.131-1.74-4.249-3.48-6.516-5.072a138.415 138.415 0 0 0-6.98-4.57 125.7 125.7 0 0 0-3.605-2.125c-1.212-.686-2.645-1.409-3.975-2.073a116.716 116.716 0 0 0-8.3-3.721c-2.76-1.176-5.825-2.01-8.815-2.812-3.025-.77-6.043-1.456-9.184-1.899.44 2.733-4.068 5.74-6.284 3.926-.35-2.257-.662-5.567-1.791-8.292-.014-.041-.039-.085-.058-.126h133.69a393.04 393.04 0 0 0 7.7 9.438 382.748 382.748 0 0 0 10.041 11.378c-1.636 1.042-3.132 2.222-4.402 3.521-.24.03-.487.074-.728.101l-5.542-4.976c-4.64 2.027-6.082 4.804-8.555 7.427-6.533 1.437-13.066 3.3-19.547 5.71-7.651 2.97-15.202 6.552-22.487 11.318v.003c-3.042.339-5.94.788-8.435 1.636-1.578-1.262-3.28-1.924-5.069-2.225-2.019-2.629-4.328-5.069-9.175-5.389" style="fill:#d92128;fill-opacity:1;fill-rule:nonzero;stroke:none;stroke-width:2.73573" transform="matrix(1.33333 0 0 -1.33333 -130.676 499.501)"/><path d="M110.549 314.539c9.517.298 19.019.528 27.869-1.425 2.952-3.519-2.69-5.223-7.565-7.026-4.88-1.74-9.033-3.983-3.228-7.586 8.787 5.266 11.296 13.282 26.865 9.463 4.347 5.997 11.055 4.49 17.957 2.708 3.456-.9 6.966-1.885 10.292-2.07 1.417-.113 2.793-.083 4.131.142.605.785 1.182 1.59 1.795 2.36 1.135 1.431 2.432 2.717 4.188 3.666-4.478 3.554-8.656 7.485-12.412 11.748 3.234-.082 2.826 4.946-.708 7.16-2.64.092-6.227.215-9.81 1.315-1.817.512-3.5 1.414-5.073 2.588-1.567 1.18-2.938 2.733-3.884 4.782-3.475-.78-4.613-4.662-6.161-6.79-.777-1.053-1.68-1.655-3.097-1.138-1.442.495-3.319 2.186-5.953 5.677-2.063 2.763-3.108 5.972-3.89 9.107-.288 1.275-.504 2.547-.709 3.805h-11.063c-.419-.314-.84-.629-1.242-.963l-1.146.963h-.14c.287-.353.607-.7 1.029-1.056-5.122 1.453-6.678-1.931-8.49-4.642-1.772-2.728-3.972-4.547-9.88.249l.265-1.656c-2.742-4.516-4.022 3.768-8.262 3.751-.444-1.19-1.609-1.822-2.974-2.257a21.208 21.208 0 0 0-1.245-.306v-18.436c.033-.028.06-.055.096-.077a.388.388 0 0 1-.096-.093v-1.072c.192-.92.558-2.074 0-2.419v-11.033c4.178.257 8.372.514 12.54.56" style="opacity:.990005;fill:#f36b21;fill-opacity:1;fill-rule:nonzero;stroke:none;stroke-width:2.73573" transform="matrix(1.33333 0 0 -1.33333 -130.676 499.501)"/><path d="m261.332 278.667 4.145 3.956 1.135 1.045a30.926 30.926 0 0 0-3.513 1.688l-3.887-4.12a451.551 451.551 0 0 1-14.284-15.823h3.554c4.098 4.648 8.396 9.05 12.85 13.254M273.506 281.766c-1.009-.93-2.013-1.854-3.023-2.787-1.52-1.516-3.039-3.04-4.563-4.566l-2.273-2.31-2.2-2.39-3.925-4.3h2.117c4.67 5.64 9.315 11.262 14.07 16.318-.066.008-.134.025-.203.036" style="fill:#fac802;fill-opacity:1;fill-rule:nonzero;stroke:none;stroke-width:2.73573" transform="matrix(1.33333 0 0 -1.33333 -130.676 499.501)"/><path d="M110.203 265.413c.019.044.043.085.057.126 1.13 2.725 1.442 6.035 1.792 8.292 2.219 1.814 6.725-1.19 6.284-3.923 3.143.44 6.158 1.127 9.187 1.896 2.987.802 6.051 1.639 8.811 2.812a114.99 114.99 0 0 1 8.3 3.724c1.333.662 2.764 1.384 3.978 2.07 1.215.687 2.41 1.399 3.606 2.126a141.614 141.614 0 0 1 6.979 4.569c2.268 1.592 4.383 3.332 6.516 5.072 2.099 1.765 4.208 3.535 6.191 5.409a230.252 230.252 0 0 1 5.79 5.77c4.85.32 7.159 2.76 9.178 5.389-1.338-.225-2.714-.255-4.134-.143-3.327.186-6.837 1.171-10.292 2.071-6.902 1.781-13.607 3.289-17.954-2.708-15.57 3.819-18.078-4.194-26.865-9.463-5.806 3.603-1.655 5.846 3.225 7.586 4.878 1.803 10.516 3.507 7.564 7.028-8.847 1.95-18.348 1.721-27.869 1.423-4.166-.047-8.36-.304-12.54-.56v-46.082c1.863-.536 3.611-1.482 5.324-2.484z" style="fill:#00a29f;fill-opacity:1;fill-rule:nonzero;stroke:none;stroke-width:2.73573" transform="matrix(1.33333 0 0 -1.33333 -130.676 499.501)"/><path d="M310.1 290.658c-3.51-.504-7.146-.178-10.75.571a108.492 108.492 0 0 1 6.19-6.79c-1.188-.678-2.717-1.373-2.345-2.648l2.172-2.005c-6.566 6.051-12.38 6.355-18.349 6.12a177.25 177.25 0 0 0-2.142-.123c.982-1.784 1.467-3.595 1.283-4.739l-1.023.118c-2.342-3.288 6.919-4.306 10.448-6.837 4.82.676 6.604 1.825 7.96 5.184-.951.969-1.482 1.776-1.794 2.523 5.261-4.432 5.321-10.338 3.02-16.62h13.884v30.703c-3.895-.664-7.277-1.827-8.554-5.457" style="fill:#fac802;fill-opacity:1;fill-rule:nonzero;stroke:none;stroke-width:2.73573" transform="matrix(1.33333 0 0 -1.33333 -130.676 499.501)"/><path d="M304.77 265.413h13.883v30.703c-3.895-.667-7.277-1.827-8.554-5.457-3.51-.504-7.146-.18-10.746.571a108.413 108.413 0 0 1 6.185-6.792c-1.184-.676-2.716-1.374-2.344-2.649l2.172-2.002" style="fill:#0066b3;fill-opacity:1;fill-rule:nonzero;stroke:none;stroke-width:2.73573" transform="matrix(1.33333 0 0 -1.33333 -130.676 499.501)"/><path d="m263.1 285.357.017.017 3.469 3.501c-.788.058-1.576.107-2.364.173-.87-.93-1.729-1.877-2.588-2.818.482-.301.966-.594 1.467-.873M266.611 283.669c2.276-.922 4.62-1.568 6.897-1.902l1.699 1.562c-.5-.514-.999-1.07-1.497-1.597.082-.014.167-.036.255-.05 2.418.977 3.184 2.537 3.411 4.148-2.153.208-4.328.75-6.497 1.795l-1.19-1.122z" style="fill:#fac802;fill-opacity:1;fill-rule:nonzero;stroke:none;stroke-width:2.73573" transform="matrix(1.33333 0 0 -1.33333 -130.676 499.501)"/><path d="M301.75 282.03c.313-.743.843-1.55 1.793-2.522-1.355-3.356-3.138-4.505-7.959-5.181-3.529 2.528-12.792 3.545-10.447 6.837l1.023-.118c.183 1.143-.304 2.954-1.283 4.735-2.265-.117-4.55-.183-6.845-.013-.222.013-.438.038-.657.063-.227-1.612-.99-3.174-3.411-4.148-.085.014-.172.036-.255.05-4.754-5.059-9.402-10.68-14.072-16.32h45.134c2.298 6.282 2.24 12.186-3.02 16.618" style="fill:#d92128;fill-opacity:1;fill-rule:nonzero;stroke:none;stroke-width:2.73573" transform="matrix(1.33333 0 0 -1.33333 -130.676 499.501)"/><path d="M263.1 285.357c-.5.28-.984.572-1.466.873a382.76 382.76 0 0 1-10.04-11.378 393.04 393.04 0 0 1-7.701-9.438h1.034c4.675 5.441 9.433 10.68 14.283 15.823zM263.646 272.103l2.273 2.312c1.526 1.524 3.042 3.047 4.563 4.566l3.023 2.785c-2.273.333-4.618.982-6.894 1.904l-1.135-1.045-4.145-3.959c-4.454-4.205-8.752-8.604-12.85-13.252h9.042l3.923 4.298zM270.878 287.625l2.976 2.804a195.287 195.287 0 0 1 4.183 3.932c2.706 2.708 5.526 5.334 8.174 8.201.684.714 1.289 1.434 2.022 2.173.711.744 1.428 1.496 2.15 2.246a130.138 130.138 0 0 1 4.222 4.732c-1.34-.227-1.426 1.026-1.727 1.83l-4.719-4.111-2.344-2.036c-.774-.678-1.434-1.337-2.156-2.002-2.812-2.667-5.698-5.225-8.396-7.936l-4.114-3.986c-1.377-1.322-2.676-2.712-4.017-4.052l-.544-.544c.774-.052 1.548-.124 2.317-.167a19.272 19.272 0 0 1 1.973-1.084" style="fill:#fac802;fill-opacity:1;fill-rule:nonzero;stroke:none;stroke-width:2.73573" transform="matrix(1.33333 0 0 -1.33333 -130.676 499.501)"/><path d="m203.596 315.995-3.012.427c-1.376.785-1.196 2.085-1.19 3.2-3.185.58-6.342 1.243-9.469 1.998 2.465 1.335 4.769 2.867 6.164 5.02-3.379 4.292-1.245 7.2.924 10.245 2.164 3.034 4.413 6.17.879 10.71 3.84 3.483 6.415 4.766 8.661 5.431h-65.395c.202-1.258.419-2.533.709-3.805.782-3.136 1.827-6.345 3.887-9.11 2.635-3.488 4.511-5.18 5.953-5.674 1.42-.517 2.32.082 3.097 1.138 1.548 2.128 2.686 6.01 6.16 6.79.95-2.05 2.32-3.603 3.885-4.782 1.574-1.174 3.256-2.077 5.073-2.591 3.583-1.097 7.17-1.22 9.81-1.313 3.534-2.216 3.945-7.244.708-7.16 3.757-4.262 7.937-8.193 12.412-11.747.304.164.591.342.928.482 2.251.982 5.302 1.362 9.816.741" style="fill:#763d98;fill-opacity:1;fill-rule:nonzero;stroke:none;stroke-width:2.73573" transform="matrix(1.33333 0 0 -1.33333 -130.676 499.501)"/><path d="M197.892 347.595c3.534-4.541 1.286-7.676-.878-10.71-2.17-3.043-4.306-5.953-.925-10.246-1.395-2.153-3.699-3.685-6.164-5.02a169.913 169.913 0 0 1 9.469-1.997c-.005-1.116-.186-2.413 1.19-3.2l3.012-.427c-4.514.62-7.564.24-9.816-.74-.336-.141-.624-.32-.927-.483a99.94 99.94 0 0 1 7.52-5.439c8.478-.957 18.094-1.061 23.352-6.511 7.124.575 8.172.553 13.903 2.542 7.729-1.595 4.788-6.596 6.574-9.463l-3.616-1.896a17.703 17.703 0 0 0 1.822-1.702 161.205 161.205 0 0 1 14.097-2.448l.326.292c.125-.136.276-.26.402-.396 2.339-.288 4.664-.515 6.99-.703 3.92 4.19 7.933 8.3 12.078 12.305 2.224 2.068 4.443 4.136 6.667 6.21 1.061 1.026 2.355 2.09 3.586 3.138l3.732 3.151c2.437 2.154 5.165 4.03 7.786 6.022 2.596 2.016 5.416 3.8 8.204 5.625a167.29 167.29 0 0 0 12.38 7.186V346.4c-5.748-.137-11.562-.879-17.43-4.172-6.634.856-15.2 2.752-23.598 3.761.005.583.01 1.155.019 1.746a4.038 4.038 0 0 1-.35-1.631c-1.53 1.98-3.546 2.853-5.756 3.132-1.106.143-2.26.143-3.42.113l-3.447-.077c-3.617-.118-6.815.334-8.008 3.753h-50.113c-2.246-.664-4.82-1.947-8.661-5.43" style="opacity:.990005;fill:#f36b21;fill-opacity:1;fill-rule:nonzero;stroke:none;stroke-width:2.73573" transform="matrix(1.33333 0 0 -1.33333 -130.676 499.501)"/><path d="M222.86 298.012c6.482-2.41 13.015-4.273 19.55-5.71a18.029 18.029 0 0 1-1.825 1.702l3.617 1.9c-1.786 2.863 1.155 7.864-6.574 9.462-5.731-1.992-6.779-1.97-13.903-2.544-5.258 5.45-14.874 5.553-23.352 6.51v-.002c7.285-4.763 14.836-8.347 22.488-11.318M256.83 290.147l-.325-.293c.243-.03.49-.074.727-.104-.125.137-.276.26-.402.397" style="fill:#fac802;fill-opacity:1;fill-rule:nonzero;stroke:none;stroke-width:2.73573" transform="matrix(1.33333 0 0 -1.33333 -130.676 499.501)"/><path d="M267.132 289.42c1.34 1.341 2.64 2.73 4.016 4.05 1.37 1.329 2.741 2.659 4.115 3.988 2.697 2.711 5.583 5.266 8.395 7.936.723.665 1.382 1.325 2.156 2l2.348 2.036c1.567 1.368 3.137 2.735 4.716 4.111-.265.709-.709 1.06-2.367-.29 1.658 1.35 2.102.999 2.367.29.3-.804.386-2.057 1.726-1.83a129.765 129.765 0 0 0-4.221-4.73c-.722-.75-1.44-1.502-2.15-2.246-.734-.739-1.335-1.46-2.02-2.172-2.65-2.867-5.468-5.493-8.176-8.202a182.708 182.708 0 0 0-4.183-3.931l-2.977-2.804c2.17-1.045 4.347-1.587 6.498-1.795.292 2.082-.312 4.254.59 5.357 3.054-.342 5.502-2.843 6.91-5.406.718.038 1.434.08 2.146.123 5.966.235 11.78-.068 18.346-6.117l-2.173 2.003c-.372 1.274 1.158 1.972 2.345 2.648a110.05 110.05 0 0 0-6.188 6.79c3.603-.75 7.238-1.073 10.748-.572 1.278 3.63 4.66 4.793 8.555 5.458v36.568a166.245 166.245 0 0 1-12.376-7.184c-2.79-1.824-5.609-3.608-8.205-5.624-2.62-1.995-5.351-3.869-7.786-6.022l-3.731-3.154c-1.234-1.045-2.525-2.11-3.59-3.135a6903.284 6903.284 0 0 0-6.664-6.213 336.82 336.82 0 0 1-12.078-12.305c.788-.063 1.576-.115 2.364-.17z" style="fill:#763d98;fill-opacity:1;fill-rule:nonzero;stroke:none;stroke-width:2.73573" transform="matrix(1.33333 0 0 -1.33333 -130.676 499.501)"/><path d="M284.877 285.782c-1.412 2.563-3.857 5.064-6.91 5.408-.903-1.105-.301-3.277-.591-5.36.218-.024.435-.048.656-.062 2.295-.17 4.58-.104 6.845.014" style="fill:#fac802;fill-opacity:1;fill-rule:nonzero;stroke:none;stroke-width:2.73573" transform="matrix(1.33333 0 0 -1.33333 -130.676 499.501)"/><path d="m287.188 312.436-1.907 3.387 1.907 4.093s1.146 3.652 3.723 3.195l2.583-.457 9.723 1.828-1.508-6.689-3.937-1.97-4.278-1.384z" style="fill:#763d98;fill-opacity:1;fill-rule:nonzero;stroke:none;stroke-width:2.73573" transform="matrix(1.33333 0 0 -1.33333 -130.676 499.501)"/><path d="M221.065 248.62c.266-.178.263.054.263.175 0 .125-.145.26-.12.372.098.547-.301.648-.758.878.27-.572.036-1.029 0-1.518.276-.039.421.227.615.093M209.083 232.056c.005-.055-.016-.11-.024-.17.008-.112.005-.227.03-.34.019-.07.12-.139.17-.07.2.27.607.418.522.864-.145.104-.216.359-.432.29-.257-.082-.277-.333-.266-.574M217.103 240.022c0 .039.005.074.011.118 0 .101-.049.205-.15.183-.145-.021-.192-.15-.18-.29-.05-.279.002-.571-.143-.828a.147.147 0 0 1-.027-.09c-.077-.056-.167-.102-.238-.17-.096-.085-.066-.181.035-.23a.47.47 0 0 1 .679.4c.005.27-.14.533 0 .798.013.036.019.068.013.11M210.87 237.386c-.024-.515-.194-.942.282-1.363-.065.493.288.936-.281 1.363M216.783 231.142c-.05-.126-.102-.27.019-.37.085-.07.167.02.224.1.274.574.274.574-.145 1.003-.167-.227-.019-.5-.098-.733M197.31 249.12c-.074.07-.165.112-.266.049-.115-.082-.128-.195-.066-.31.063-.123-.005-.276.173-.429.106.129.2.227.27.34.102.158-.016.25-.112.35M213.977 232.112c-.15.003-.279-.115-.437-.08-.205 0-.205 0-.11-.248.014-.113.09-.184.186-.12.115.079.203.166.353.07.123-.084.26-.104.326.066.06.137-.126.312-.318.312M222.682 281.43h-.005zM215.172 231.644c-.265.208-.317.18-.479-.249a.366.366 0 0 0 .323-.2c.055-.09.126-.16.23-.095.142.087.054.197.022.306 0 .09-.022.175-.096.238M209.385 234.695c-.033.044-.071.088-.104.132a.378.378 0 0 1-.025.098c-.136.254-.27.3-.454.03-.205-.317-.295-.63-.024-.952h.005a.45.45 0 0 1 .328-.005c.323-.044.17.364.37.413.19-.003.232-.227.404-.224.033.37-.14.536-.5.509M209.366 230.322c-.024.186.192.254.17.424-.372-.014-.512-.205-.446-.56-.035-.04-.074-.078-.115-.119a.456.456 0 0 1-.096-.038c-.23-.161-.262-.306.03-.449.342-.17.66-.218.95.096a.486.486 0 0 1-.041.323c.005.328-.38.126-.452.323M220.734 239.106c.071-.014.173.003.222.047.049.049.038.153-.036.21-.145.115-.21.331-.473.391-.055-.424.027-.599.287-.648M212.383 232.582c-.118-.08-.036-.205-.022-.315a.234.234 0 0 1 .005-.224c.26-.036.26-.036.533.254-.085.074-.178.145-.257.225-.08.068-.175.12-.26.06M198.998 231.203c-.12-.084-.038-.208-.025-.317-.032-.08-.035-.153.011-.227.255-.036.255-.036.534.26-.088.068-.178.14-.26.219-.077.074-.172.123-.26.065M196.893 248.256c-.162-.219-.162-.44-.096-.67.019-.063.08-.082.145-.082.054 0 .142.033.12.085-.093.202.115.473-.17.667M221.22 236.389c-.013.014-.035.022-.049.033.011.202-.057.366-.252.454-.15.12-.227.287-.325.451-.033.058-.118.104-.197.052-.077-.049-.052-.137-.014-.202.096-.142.203-.277.304-.41.033-.094.066-.192.158-.244-.016-.085-.024-.17.058-.23-.008-.076.038-.118.101-.15.09-.12.23-.233.348-.115.134.14-.025.262-.132.36M222.749 272.253c-.02.038-.115.074-.14.057-.175-.11-.148-.284-.126-.457 0-.013.017-.032.066-.115.156.181.317.299.2.515M219.05 240.463c-.057-.038-.043-.14 0-.208.127-.205.277-.14.499.014-.205.06-.257.358-.498.194M220.582 240.754c-.03-.106.085-.1.115-.12.23-.055.292.077.344.232.041.12-.06.14-.12.132-.148-.02-.295-.074-.34-.244M212.319 231.12a22.1 22.1 0 0 0-.446-.004c-.197.022-.266-.071-.15-.227.084-.11.169-.266.36-.241a.308.308 0 0 1 .11-.003c.06.161.312.044.342.24a.532.532 0 0 1 .049.332c-.11.032-.194-.014-.265-.096M210.814 228.716c-.15-.003-.298-.003-.448-.005-.2.022-.266-.07-.153-.224.087-.112.175-.268.36-.244a.442.442 0 0 1 .116-.003c.06.162.306.047.342.241.049.104.057.216.043.331-.106.033-.194-.014-.26-.096M209.684 233.429c.008.087-.024.153-.112.175-.145.044-.216-.044-.26-.159-.04-.123.044-.17.164-.221.107.013.192.068.208.205M208.904 230.982c.017.156-.09.191-.216.205l-.115.008c-.005.087.02.194-.11.21-.024.006-.076-.024-.081-.046-.03-.08.01-.14.076-.186.039-.068.077-.131.115-.2.052-.09.12-.15.236-.117.057.019.09.063.095.126M216.735 234.668c-.03.02-.12-.022-.142-.054-.096-.216.065-.296.246-.394.03.183.106.347-.104.448M199.599 232.088c-.03.016-.126-.022-.14-.058-.095-.216.06-.292.241-.394.036.18.11.348-.101.452M218.233 233.506c-.019.011-.079-.022-.095-.05-.09-.223.052-.327.265-.434 0 .2.052.38-.17.484M200.529 230.565c-.025.008-.088-.025-.096-.05-.093-.224.046-.328.26-.432.005.194.052.378-.164.482M207.961 234.984c-.123-.058-.129-.17-.038-.28.063-.062.115-.147.227-.128.082.082.044.175-.005.252-.038.068-.052.213-.183.156M197.181 249.622c.008-.099.077-.14.159-.134.115.008.172.082.142.197-.022.087-.096.114-.18.103-.09-.016-.12-.082-.12-.166M196.706 274.099c-.178.12-.288-.017-.348-.17-.044-.126-.09-.254-.044-.394-.016-.09-.032-.202.044-.249.082-.052.17.011.205.104.08.025.102.077.085.15.003.075.011.148.017.222.079.107.2.233.04.337M210.358 234.326c.079 0 .153.011.172.104.019.082 0 .16-.093.178-.104.02-.194-.022-.216-.131-.014-.08.049-.137.137-.15M210.304 237.8c-.013.079-.09.115-.172.079-.082-.033-.189-.052-.178-.178.038-.08.104-.107.18-.085.094.022.195.063.17.184M213.443 233.407c-.003.096-.019.203-.145.176-.074-.017-.08-.118-.074-.192.003-.145.096-.189.216-.205.003.074.003.15.003.221M199.34 229.133c-.077-.016-.077-.118-.077-.192.005-.142.102-.188.222-.205v.225c-.005.093-.02.202-.145.172M206.625 230.573c-.11.038-.21-.071-.27-.178v-.008a1.73 1.73 0 0 1-.157-.049.158.158 0 0 1-.164-.052c-.087-.036-.096-.104-.057-.175.046-.093.131-.112.227-.063.066-.038.186-.074.186-.107.02-.437.345-.347.61-.374.107-.011.164.052.213.134.167 0 .282.07.356.227.047.123.03.243-.09.298-.277.131-.561.254-.854.347M220.62 231.193c-.06.022-.116-.036-.121-.096-.011-.12.03-.224.145-.271.085-.01.12.038.131.099.025.13-.035.224-.156.268M218.586 239.031c-.112-.049-.096-.147-.057-.232.046-.088.136-.132.232-.071.11.065.085.142-.016.205-.025.076-.074.137-.159.098M216.737 233.578c.017-.155.047-.35.241-.295.172.052.118.238.044.378a.17.17 0 0 1-.038.04c-.025.085-.03.211-.16.165-.13-.044-.081-.18-.087-.288M197.042 260.957c.028.09-.046.142-.137.142-.1-.005-.191-.032-.191-.161-.005-.068.04-.101.107-.12.1-.005.191.043.221.14M210.563 231.684c-.005.09-.049.15-.14.126a.198.198 0 0 1-.106-.118.139.139 0 0 1 .126-.158c.09-.008.115.07.12.15M200.609 228.561c-.044-.01-.096-.071-.104-.118-.017-.079.044-.15.123-.158.093-.005.118.074.12.156-.003.087-.049.15-.14.12M205.818 231.353c-.076.01-.156-.025-.177-.096-.044-.123.07-.09.12-.115.085-.005.167.003.191.082.03.104-.062.124-.134.129M213.609 231.147c-.077-.003-.137-.052-.15-.112-.005-.085.038-.126.1-.129.083-.005.13.058.146.137.008.06-.03.107-.096.104M222.2 238.908c-.06.011-.109-.049-.109-.11-.005-.084.055-.13.134-.155.072-.008.115.03.113.096-.005.084-.055.153-.137.17M222.37 314.71c.057.01.087.057.09.118-.025.073-.072.13-.151.142-.066.008-.112-.03-.11-.09.011-.102.05-.184.17-.17M220.114 237.642c-.082-.025-.12-.09-.126-.17-.005-.057.017-.128.072-.128.125.003.13.11.155.2-.01.062-.024.12-.1.098M197.181 270.928c0-.154 0-.307.005-.46.266.304.266.347-.005.46M222.548 276.364c.005.09-.063.132-.14.137-.046.003-.144-.036-.144-.055.003-.1.052-.172.172-.18.068-.003.096.035.112.098M221.568 234.94c-.005.058-.025.116-.082.127-.063.013-.115-.025-.102-.09.011-.047.047-.105.09-.124.07-.033.088.03.094.088M220.825 242.52c-.025.137-.066.277-.24.214-.135-.044-.148-.148-.034-.246a.151.151 0 0 1 .039-.08c.005-.068.044-.106.101-.128.063-.066.145-.15.222-.066.128.129 0 .219-.088.306M219.422 232.993c-.065.011-.112-.027-.114-.093-.005-.057.008-.115.073-.12.06-.003.102.033.113.06.013.096-.014.142-.072.153M197.62 293.452c0 .057-.03.107-.096.104-.082 0-.126-.055-.132-.14.005-.065.05-.1.107-.104.096-.01.115.063.12.14M195.848 280.54a.237.237 0 0 1-.145-.074c-.036-.055 0-.104.06-.12.08-.028.14.013.175.087.005.069-.027.115-.09.107M213.588 233.004c.063.008.087.08.07.137-.035.15-.136.057-.215.044.01-.09.01-.203.145-.181M213.443 233.186h-.003zM215.027 234.027c-.054.03-.1.008-.112-.054 0-.022.036-.055.055-.082.027.013.077.019.085.043.01.025-.003.077-.028.093M197.71 330.077c.008.022 0 .077-.019.09-.046.036-.101.02-.118-.04-.003-.025.03-.058.047-.088.027.014.074.014.09.038M219.524 235.366c-.041-.063.014-.096.019-.102.126-.065.15-.008.161.05.005.027-.016.085-.04.096-.055.032-.113.01-.14-.044M203.654 226.17c-.01.017-.03.022-.046.03.005.205-.055.37-.252.457-.15.123-.227.293-.325.451-.036.058-.12.107-.195.055-.076-.052-.057-.14-.016-.205.093-.142.2-.276.301-.413.03-.093.071-.189.156-.244-.014-.082-.022-.164.06-.227-.005-.076.036-.117.101-.15.09-.123.236-.23.345-.115.137.14-.019.263-.129.361M202.551 227.423c-.08-.022-.12-.087-.128-.17-.005-.06.019-.13.076-.13.12.002.129.114.148.202-.003.06-.025.12-.096.098M203.818 224.757a.225.225 0 0 1 .09-.123c.074-.03.09.03.096.087-.005.06-.022.112-.085.126-.063.014-.118-.025-.102-.09M201.955 225.15c-.038-.066.017-.102.025-.105.126-.065.148-.008.159.047.003.036-.014.085-.039.101-.057.033-.115.005-.145-.044M218.383 235.638c-.057-.01-.101-.049-.082-.115.016-.054.027-.115.112-.09.052.016.11.036.11.022-.039.148-.074.191-.14.183M199.941 229.395c-.057-.008-.101-.05-.085-.118.014-.052.03-.115.11-.09.052.019.109.038.115.022-.039.15-.074.194-.14.186M196.04 280.083c.005-.022.055-.033.077-.05.063.015.096.058.085.113-.005.022-.06.05-.085.047-.06 0-.096-.052-.077-.11M196.46 277.486c.03.052.008.099-.055.107-.022.003-.046-.033-.077-.05.017-.03.02-.076.041-.087.025-.008.074.005.09.03M217.825 251.163c.063.008.112.055.076.115a.238.238 0 0 1-.12.101c-.052.011-.107-.022-.11-.09.025-.08.063-.143.154-.126M221.413 231.599c.013-.033.024-.08.049-.088.057-.022.11.011.12.071.003.028-.024.077-.044.088-.06.02-.106-.01-.125-.071M211.76 231.65c-.019.003-.049-.033-.074-.05.014-.027.017-.074.041-.082.02-.01.074.003.088.028.027.046.008.098-.055.103M197.122 262.846c-.084.15-.221.137-.36.118.095-.11.226-.11.36-.118M217.176 241.014c.024.054-.008.098-.06.115-.017.003-.044-.033-.069-.05.014-.03.02-.074.044-.087.019-.011.08.003.085.022M204.379 231.51c.005-.03.04-.057.057-.079.03.014.08.025.085.044.003.033-.017.085-.047.099-.06.04-.095-.005-.095-.063M196.936 264.248c-.11-.027-.135-.114-.145-.21.15 0 .164.093.145.21M218.941 231.545a.065.065 0 0 1 .008-.049c.005-.008.03-.008.047-.008.003.016.016.036.016.05-.016.062-.046.065-.07.007M214.685 231.396h.008-.003zM214.661 231.35c.005 0 .02.028.025.047-.055-.02-.066-.036-.025-.047" style="fill:#231f20;fill-opacity:1;fill-rule:nonzero;stroke:none;stroke-width:2.73573" transform="matrix(1.33333 0 0 -1.33333 -130.676 499.501)"/><path d="M197.19 271.056c.087.014.12.066.1.15-.065-.027-.104-.076-.1-.15-.05 0-.086-.022-.075-.074.003-.022.041-.038.066-.055.005.044.008.085.008.129M213.299 364.204v-.008c-.05-.003-.038 0 0 .008m-8.29 5.119a.03.03 0 0 0-.007.019h.008v-.008zm-3.427 3.967s0 .003.005.005zm20.132-.63c-.123.044-.265.09-.446.15-.044.14-.115.244-.282.244a.703.703 0 0 0-.522.225c-.104.104-.282.246-.397.07-.12-.188.192-.194.23-.344-.274-.345-.646-.29-1.012-.24-.115.01-.233.021-.342.04-.285.052-.607-.016-.843.164-.24.181-.481.211-.763.206-.449-.003-.884-.011-1.316-.19-.438-.18-.517-.141-.744.272-.104.197-.23.219-.416.238-.517.065-1.042-.014-1.562.104-.14.03-.26.01-.37-.104a.437.437 0 0 0-.177-.115c-.08 0-.159.003-.23.01-.068.025-.137.06-.208.105-.364.218-.711.467-1.187.52-.419.043-.774.062-1.116-.203-.039.003-.085.022-.11.003-.588-.356-1.124-.295-1.655.129-.298.235-.624.399-1.01.166-.03-.019-.07-.008-.112-.008-.369.055-.75 0-1.113.12-.077.025-.137-.043-.17-.109-.117.041-.202.02-.249-.104-.23-.216-.495-.309-.787-.172-.619.287-1.248.257-1.894.137-.054.096-.155.104-.254.112-.298.2-.63.145-.947.123-.309-.02-.61-.107-.916-.063-.252.263-.624.197-.914.329-.78.344-1.425.052-2.049-.384-.112-.027-.115-.117-.115-.21-.136-.071-.161-.205-.186-.342-.035-.2-.07-.4-.104-.605v-31.302h24.288v14.289c-.098.364-.05.75-.194 1.1-.047.1 0 .218.027.336.096.405.233.807.12 1.242-.144.566.033 1.182-.224 1.737.18.432-.079.884.036 1.305.164.58-.224 1.207.161 1.757.008.016.008.046 0 .06-.221.342-.087.596.074.84z" style="fill:#231f20;fill-opacity:1;fill-rule:nonzero;stroke:none;stroke-width:2.73573" transform="matrix(1.33333 0 0 -1.33333 -130.676 499.501)"/><path d="M202.605 240.218c.136-.156-.03-.4.172-.515.145-.054.246.022.342.115.08-.008.158-.019.235-.027.038-.066.085-.088.12-.085a.509.509 0 0 0-.24-.197c-.238-.11-.419-.295-.178-.585.005-.296.107-.55.246-.786-.008-.213-.101-.322-.306-.413-.175-.076-.31-.197-.285-.366-.005.019-.019.032-.03.046.036.096.06.192.055.296.08.079.156.161.235.238.101.068.11.15.02.24-.009.09-.015.19-.14.203a.26.26 0 0 1-.077.049c-.178.172-.145.52-.47.57-.055.032-.115.062-.176.092a3.334 3.334 0 0 0-.005.473l.066.025c.11.027.301-.068.263.175-.022.167-.058.342.153.451m1.212-4.96c.159.025.23.085.249.16a.8.8 0 0 1-.08-.294c-.004-.221-.1-.33-.306-.424-.131-.057-.238-.145-.276-.251-.235.076-.432.238-.698.243-.066.063-.172.09-.186.205.085.15.205.005.301.03.101.028.17.085.197.187.02.076.014.15-.057.202-.104.071-.211.071-.299-.036a2.54 2.54 0 0 1-.112-.13c-.005.018-.016.035-.024.054.136.175 0 .38-.071.58-.03.098-.115.126-.211.131l.005.005c-.071.15-.186.23-.356.227-.131-.008-.235-.068-.24-.202-.011.024-.017.054-.028.079.18.383.18.378.498.161.06-.035.14-.046.21-.068.214-.01.211.112.157.26-.039.118-.164.148-.247.224-.03.14-.079.236-.186.255.014.065.03.128.041.188.041.154-.123.162-.238.16-.328-.004-.158.215-.164.357 0 .083-.005.162-.005.241-.019.028-.044.028-.06.047v.005c.06-.088.123-.069.2.003.158.15.227.33.257.517.022-.017.055-.017.104.01.01.009-.02.066-.025.1v.002c-.013.038-.049.058-.063.088 0 .046.011.084.011.126.02-.02.039-.03.058-.047.106-.104.04-.21.016-.323-.046-.161.014-.265.192-.284a.425.425 0 0 0 .123-.312c.046-.123-.044-.26-.071-.4 0-.01-.008-.019-.008-.03 0-.005.005-.01.005-.019 0-.038.016-.074.03-.107.024-.04.035-.079.085-.112l.016.047.014-.008c.093.01.15.063.156.142 0 .027-.011.052-.014.08a.45.45 0 0 1 .098-.184c.017-.536.304-.938.649-1.308-.011-.539-.011-.539.353-.577m.47 1.146c.02-.003.041.06.06.093.148.028.331.028.206.274-.096.194-.18.394.136.454-.079-.148.03-.243.15-.323.061-.098.157-.123.258-.128.027-.077.058-.153.085-.236.03-.043.063-.09.098-.136-.2-.277-.3-.583-.339-.911-.022.003-.035.013-.057.013-.099.12-.205.154-.22-.035-.016-.156.075-.287.162-.413-.003-.011-.013-.02-.016-.025-.192-.019-.397-.09-.359.24.022.179.088.395-.17.523-.078-.12-.155-.235-.215-.366.016.076-.028.172-.09.27-.006.009-.006.014-.014.017-.005.071-.017.142-.02.213.02.227-.032.506.345.476m-.128 3.53a.241.241 0 0 1 .12-.104c-.148-.02-.284-.02-.263.23a.46.46 0 0 1 .143-.127m.314.299c.008 0 .011.005.017.005 0-.017-.005-.025-.005-.039a.365.365 0 0 0-.036.02c.008.003.02.005.025.013m.325-2.186c.312.107.635.055.955.077.03-.022.044-.055.066-.082.013-.18.049-.364.013-.539-.093-.29-.095-.295-.295-.131-.104.087-.167.065-.205-.055-.082-.27-.227-.104-.356-.055-.024.03-.046.03-.07.044.06.047.035.118-.083.27a.485.485 0 0 1-.24.239c.016.126.081.189.215.232m.485 4.356c.038-.017.068-.05.106-.071v-.02c-.093-.29-.1-.292-.29-.13-.013.013-.024.004-.038.013v.03c.025.118.05.244.222.178m.585-3.557a.802.802 0 0 1 .131-.123.11.11 0 0 0 .014-.03c-.033-.04-.05-.101-.08-.145-.018-.024-.018-.049-.035-.074-.038.039-.07.096-.12.11-.014.005-.02 0-.03.005-.011.095.06.175.12.257m-.331-3.82h-.005c.005 0 .005 0 .01.006 0-.005-.004-.005-.004-.005m-3.51-.843c-.02 0-.052-.096-.055-.15 0-.036 0-.074.011-.107a1.742 1.742 0 0 0-.438.088c.074.093.011.177-.07.251-.066.12-.11.255-.241.334-.033.016-.066.038-.102.057l-.038.033c.38-.063.698-.243.969-.52.005-.003.005-.005.008-.01-.014.004-.02.021-.044.024m-.837 3.245c.038.032.079.065.11.098.084-.227.166-.454.245-.681-.005.003-.008.003-.013.003-.058.08-.143.098-.233.118-.098.14-.276.26-.11.462m4.892 3.165zm.088.534c.125.04.191-.063.186-.159a.615.615 0 0 1 .136-.438.53.53 0 0 1-.202.052c-.06.069-.115.104-.159.085.052.074.085.159.003.27-.052.07-.06.16.036.19m.517.435c.096-.134.112-.288.12-.452.011-.2.12-.377.323-.295.205.08.175.27.03.424-.019.022-.03.046-.024.074-.102.142-.197.29-.293.435.036.005.082-.011.14-.05.004-.03.004-.062.016-.093.016-.038.104-.046.156-.068.15-.09.24-.224.298-.386-.003-.257-.123-.476-.244-.692-.098-.055-.106-.17-.155-.254-.005.003-.008.003-.014.008.068.194.197.353-.058.511-.082.077-.164.156-.246.236.03.172-.038.33-.11.478l.061.123m.257.742.008-.03c-.027-.008-.052-.008-.09-.022-.005-.003-.014.003-.025 0-.024.04-.044.08-.076.112.063-.011.123-.044.183-.06m.306-4.112c-.065-.038-.11-.016-.142.016-.035.05-.074.096-.104.143.044.063.08.128.099.202.027-.03.057-.066.095-.09.028-.088.107-.167.052-.271m3.174 2.427c.11.095.134.205.131.317.003.003.003 0 .008 0 .09-.041.107-.123.115-.21 0-.009.005-.017.011-.028.005-.027.014-.055.025-.058.038-.008.057.022.052.06.336-.377.33-.577-.011-.949-.342-.125-.348-.125-.238-.59-.069-.009-.11-.044-.129-.113a.191.191 0 0 1-.016-.112h-.058c.077.238.069.503.099.755a3.9 3.9 0 0 0 .01.928m1.541 7.679c-.025-.011-.044-.025-.063-.036v.025c.02 0 .038.008.063.01m.222-4.798c.18-.052.385-.082.629-.052.235-.246.437-.454.62-.637-.004-.08.009-.156.086-.184.1-.035.188-.106.29-.172.021-.016.046-.044.07-.063a.742.742 0 0 0 .088-.167c-.005-.26-.131-.473-.246-.695-.142-.076-.09-.3-.263-.358-.164.022-.188.197-.3.28-.072.15-.206.193-.354.202a.28.28 0 0 1-.114.087c.03.033.076.06.09.115.027.118-.02.216-.088.306.077.044.148.085.227.126.066-.013.178-.024.178.041.005.071-.1.074-.175.063-.07-.003-.148-.003-.227-.003a.45.45 0 0 1-.09 0c-.096.047-.192.088-.287.131-.063.05-.129.102-.195.15-.003.11-.003.22-.003.326 0 .099-.013.19-.115.244.017.115.058.208.178.26m-.065 5.028c.07.028.145.055.218.082.02-.044.058-.052.096-.07a5.158 5.158 0 0 1-.355-.17c.016.016.04.024.043.057a.385.385 0 0 1-.003.101m2.402-.158c.115-.03.222-.066.31.049.035.05.076.098.114.147.09.044.186.088.277.132.074.014.161.014.205.093.161.01.325.027.473.11.164.076.328.155.493.237a.513.513 0 0 0 .224-.145c.213-.23.216-.224.342.12v.058c.016-.025.035-.046.044-.08-.008-.374-.19-.686-.361-1.006-.211-.115-.135-.44-.386-.523-.24.03-.277.282-.435.403-.107.224-.304.284-.52.298-.145.175-.298.221-.323-.058-.022-.257.153-.47.293-.684.304-.46.202-.675-.326-.755-.079.329-.21.627-.59.796.019.003.038.005.054.005.099.008.15.124.156.227.005.154-.107.184-.232.19-.072.079-.14.158-.211.243-.03.1-.11.14-.197.17a.853.853 0 0 1-.159.139c.266-.028.517-.088.755-.167m.564 5.108c.186.021.328.082.317.311-.005.09.047.181.077.274.096-.005.186-.016.284-.027.137-.132.268-.088.408.016.101.08.21.145.317.224-.1-.295-.167-.582.08-.842.049-.069.104-.134.15-.203a.176.176 0 0 0-.08-.06c.025.104-.065.126-.136.129-.126 0-.235-.028-.235-.186 0-.069.044-.11.1-.137-.026-.066 0-.134.116-.203l.194-.008c.353-.04.498-.407.804-.52.047-.035.09-.07.132-.106 0-.03.005-.066.019-.099-.02-.325.251-.23.418-.29-.21-.13-.377-.26-.046-.46.071-.043.104-.15.159-.226.369-.301.369-.301.61-.008.284-.063.514.29.818.098h.114v-.003a.223.223 0 0 1 .072-.084.312.312 0 0 1-.143.032c-.098-.049-.104-.112-.024-.188.01-.11.013-.217.024-.32-.11-.19-.208-.039-.303.013-.222.315-.444.028-.649-.019-.262-.05-.517-.216-.744.068-.09.285-.096.627-.522.66-.282.022-.616-.233-.843-.561-.005.016-.022.033-.027.055-.074.27-.337.079-.457.207-.039.044-.014.148-.02.22l.017.347c.11.063.29-.11.361.11.12.429.066.527-.462.85-.214.159-.476.164-.722.233a.078.078 0 0 0-.077.035c-.014.08-.055.115-.134.09-.161.203.05.38.033.578m4.03-8.218c-.145-.083-.094-.304-.266-.362-.164.022-.189.195-.298.28-.071.15-.205.194-.356.202-.095.12-.202.148-.221-.038-.014-.178.106-.323.202-.468.033-.055.05-.096.069-.14-.331.107-.879-.005-1.22.069-.06.06-.118.117-.176.178-.049.112-.106.164-.172.18-.189.18-.38.353-.583.498-.005.02-.013.033-.013.05-.011.057-.017.12-.02.174.02.05.044.096.06.145.044 0 .088.005.132.02.336-.165.5-.515.777-.745.098.293.175.484.265.597.025-.017.041-.025.066-.044-.005.033-.022.046-.03.08.09.09.197.109.35.057-.014-.017-.033-.028-.038-.058-.011-.085.038-.145.125-.164.08.003.154.033.17.115a1.75 1.75 0 0 0 .162-.08l.495-.024c-.005-.014-.014-.022-.014-.033 0-.082.033-.161.12-.172.096-.017.145.049.15.137.091-.096.176-.055.277.035.085.088.14.18.192.274.013-.025.03-.047.038-.074-.003-.257-.123-.473-.244-.69m-2.396-2.2zm-1.34-6.108c-.102-.082-.206-.14-.343-.126v.011h-.005c-.043.082-.079.167-.12.25-.025.128-.11.177-.21.204.095.014.216-.027.407-.128.093-.005.18-.008.27-.017zm-1.207 1.888a.551.551 0 0 1-.17.095.289.289 0 0 0-.095.008c-.301.255-.482.583-.567.966l-.016.12c.016.03.03.063.046.096.025 0 .06.005.09.011v.003c.23-.112.343-.353.534-.509.025.072.044.113.063.17a.726.726 0 0 0 .301-.386c-.003-.213-.09-.394-.186-.574m-.005-3.562v.003zm-.101-.386v.005c.024-.016.049-.033.074-.046.003-.025.019-.033.024-.052-.035.03-.065.063-.098.093m-.624-.723c.003-.035.003-.068.003-.104 0-.013 0-.03-.003-.043-.03.024-.055.054-.082.079.01.036-.005.068-.044.09a.228.228 0 0 1 0 .104v.003c-.005.022.008.036.008.052a.686.686 0 0 0 .118-.18m-.329 3.69c.011.041.02.082.025.123.01-.038.022-.074.027-.106-.013-.008-.035-.011-.052-.017m-.56 2.766h-.017c.005.09.052.18.159.274.107.07.134.164.074.276a.112.112 0 0 0 .019-.03c.21-.315.137-.468-.235-.52m.09-2.082c.03-.008.044-.03.076-.036.003-.019.008-.03.014-.049-.035.025-.06.055-.09.085m.05 2.76c-.012 0-.017.011-.02.014-.238.096-.227.205-.08.323-.004-.008-.01-.014-.01-.025a.513.513 0 0 1 .11-.312m-.121-1.775c-.093-.05-.137-.008-.18.044.004.106.004.219.01.33.033-.035.066-.076.115-.103.03-.09.101-.167.055-.271m-.17-.342c-.005.046-.01.087-.01.134.004 0 .016.003.018.005-.003-.046-.003-.09-.008-.14m6.766 2.632zm-1.116-2.235c.005-.008.008-.014.019-.022 0-.013 0-.033-.005-.046-.005.005-.008.013-.014.022zm-9.586-2.826h-.005zm-2.61-4.81zm-5.47 4.95a.15.15 0 0 0-.01-.039c-.02 0-.044 0-.063.008-.304.252-.481.58-.569.963-.005.039-.008.08-.014.118.014.036.03.066.044.101a.58.58 0 0 1 .09.008c.217-.104.332-.328.512-.484-.005-.224.06-.457.011-.676m-.818 2.476c-.074.153-.21.194-.358.205h-.003c.312-.008.662-.019.963-.03-.014-.033-.025-.065-.041-.09-.145-.082-.09-.307-.266-.364-.164.025-.191.194-.295.28m-2.142 101.727c.019-.09.024-.18.076-.262.126-.19.28-.372.31-.602.038-.282-.277-.301-.386-.479v-.172c-.005 0-.005.005-.008.008-.036-.011-.08-.02-.093-.039-.011-.022.013-.063.019-.095.03.013.06.024.082.043v-1.23a.162.162 0 0 0 .033-.025c0-.11 0-.216-.005-.326-.008-.003-.02-.008-.028-.008v-.517a.998.998 0 0 0 .14-.077c-.101-.15-.178-.3-.052-.473.18-.249.153-.476.005-.744-.14-.257.11-.189.24-.208 0-.224.004-.454.004-.678-.083-.282.024-.591-.102-.881-.128.068-.07.293-.197.26-.013 0-.024-.011-.038-.014v-.558h.172c.069-.134.266-.2.241-.375-.068-.413.096-.832-.05-1.245-.12-.147-.24-.298-.363-.451v-.53a.302.302 0 0 0 .074-.252c-.03-.11-.047-.244.085-.304.342-.172.227-.479.221-.747-.005-.235-.136-.432-.21-.646-.06-.01-.112-.005-.17-.008v-1.22c.202-.044.244-.224.37-.336-.222-.359.068-.8-.187-1.157-.024-.036.052-.137.066-.211.005-.038.02-.074.025-.11 0 0 0 .005-.005.005-.025.005-.055-.027-.09-.043.016-.033.018-.08.043-.093.014-.014.063-.003.082.013.132-.47.342-.938.011-1.425-.17-.055-.137-.254-.246-.347-.025.01-.044.008-.068.008v-1.352c.027.038.049.088.062.14.036 0 .066.008.09.032.042-.005.083-.013.121-.019.391-.864.17-1.715-.06-2.563a1.91 1.91 0 0 1-.213-.118v-.3l.024-.023c.235-.175.219-.41.29-.629-.066-.008-.101-.046-.126-.104-.079.017-.131.02-.189.025v-1.056c.058-.005.107-.014.19-.017.3-.021.15-.246.204-.377-.06-.263.005-.602-.186-.772-.27-.243-.114-.61-.208-.889v-.492l.115-.153c-.032-.247-.052-.487.208-.635.033-.15.066-.304.102-.454-.15-.123.005-.443-.271-.457a.22.22 0 0 1-.154-.066v-.908c.19-.02.274-.126.208-.325-.03-.104-.038-.184.077-.227-.005-.069.03-.113.096-.135.178-.23.115-.478.09-.722-.148-.016-.227-.087-.197-.246-.03-.126-.066-.254-.08-.383-.01-.077.014-.159.105-.167.01 0 .019.008.035.011-.01-.06-.024-.118-.12-.12-.074-.003-.15 0-.213-.022v-.512c.027-.038.052-.076.098-.115.161-.134.3-.284.451-.43.06-.418 0-.809-.24-1.165a.66.66 0 0 1-.31-.238v-.164c.154.107.28.164.405.044.039-.542.096-1.086.072-1.63-.14-.22-.545-.345-.269-.734.022-.032-.093-.153-.13-.238-.05-.1-.14-.202 0-.309.163-.016.292.203.48.085l-.002-.777c-.03-.115-.096-.235-.074-.342.057-.304-.017-.451-.353-.525-.047-.011-.085-.036-.129-.055v-.914c.23-.295.235-.72.318-1.094.273.066.309.276.413.43.281.2.547.424.933.325 0-.153.043-.304.227-.306.114-.003.114.12.114.213.09.162.222.085.353.069.277-.025.728.27.854.55.074.016.131.046.126.136.033.005.068.008.101.014v-.014s.003 0 .008-.003c-.036-.117-.115-.257.025-.339.106-.06.26-.036.366.063.14.128.241.287.422.366.117-.183.385-.205.454-.435a.098.098 0 0 1-.102-.019c-.276.028-.276-.339-.544-.355-.53-.036-.525-.058-.427-.58.014-.08.003-.153 0-.23-.208-.159.017-.353-.033-.523-.202-.104-.383-.003-.569.014-.221.017-.205-.304-.399-.358-.186.249-.4.427-.736.317-.194.107-.386.197-.5-.101-.633.377-.928.334-1.404-.214v-.363c.088-.222.356-.32.405-.624-.18.066-.276-.055-.405-.123V298.7c.027-.137.027-.271 0-.405v-.947c.115-.071.265-.071.361-.178l-.005-.043v-.047c-.101-.238-.394-.476-.01-.72.035-.043.068-.095.103-.139 0-.033.003-.066.017-.096 0-.005 0-.008.01-.016a.425.425 0 0 0-.01-.457c-.022-.21-.005-.43-.288-.495-.104-.028-.126-.156-.049-.238.06-.069.137-.041.186.035.257 0 .32-.177.345-.385.016-.208.046-.413.046-.63 0-.342-.128-.582-.42-.746-.132-.055-.083-.124-.031-.217.044-.082-.066-.158-.254-.232v-7.988c.019.024.038.04.057.062.391.104.78.329 1.18.025 0 0 .013-.014.013-.016a.936.936 0 0 0-.02-.156c-.098-.09-.207-.173-.298-.268-.1-.107-.153-.247-.01-.348.145-.096.27-.01.306.137.046.213.23.167.361.224.142-.09.315-.057.473-.09l-.005-.016c.05-.14.099-.274.216-.367.011-.05.02-.099.025-.148.011-.016.02-.038.03-.052v-.005a.074.074 0 0 0-.024.033.11.11 0 0 1 .024-.044c-.107-.172-.035-.353.025-.5.101-.268-.107-.326-.236-.446h-.005a.108.108 0 0 1-.095-.008c-.12.027-.282-.058-.361.11-.066.18-.203.133-.329.09-.128-.055-.254-.077-.355.051.057.19-.055.334-.134.482-.025.107-.115.12-.203.131 0 .039-.005.069-.008.101-.016.301-.221.285-.418.233-.227-.06-.12-.227-.099-.38.038-.252 0-.394-.11-.46v-6.795a.918.918 0 0 0 .214-.315.227.227 0 0 1 .071-.047c.216-.14.427-.309.722-.24a1.59 1.59 0 0 0 .137-.11c-.005-.068-.01-.137-.01-.21-.162-.227.01-.465-.023-.695-.24-.085-.314.137-.446.24-.14.274-.435.15-.664.252v-3.945c.038-.003.073-.01.109-.01.224-.012.224.224.24.396.165.09.326.194.376-.11-.066-.06-.145-.117-.14-.221.03-.503.03-.5.482-.654.035-.014.04-.096.054-.15l-.11-.145c-.265-.06-.568.142-.804-.12l-.005-.004c-.109-.063-.17-.131-.024-.227.04-.04.082-.08.12-.12a.802.802 0 0 1 .02-.085c-.004-.008-.004-.02-.004-.022-.021.02-.046.038-.065.058-.096.068-.173.104-.25.104v-7.417c.058.005.121.016.184.041.071.027.025.23.156.131.06-.043.025-.194-.05-.262-.1-.085-.22-.15-.29-.271v-2.391c.004-.025 0-.044 0-.066v-.449c.015-.01.02-.03.034-.04.36-.29.842-.403 1.154-.767l-.115-.175c-.065-.005-.11-.038-.14-.098-.106-.003-.21-.003-.317-.005-.095.074-.246.145-.312.074a1.317 1.317 0 0 1-.265-.495c-.01-.03.02-.052.03-.077-.054-.01-.09-.041-.101-.112-.005-.063.052-.093.126-.09.052.019.131-.005.175.038.142-.044.197.038.227.158.101.025.164-.035.222-.093.134-.216.235-.45.446-.607.084-.232.16-.468.235-.697-.014-.104.145-.208.016-.301-.087-.063-.172.03-.265.049-.033.005-.071.016-.107.024-.09.203-.21.375-.465.375-.005.022-.01.047-.01.071.013.164-.017.312-.203.337-.12.016-.123-.11-.134-.2-.12-.216-.326-.446.084-.596.036-.112.32-.143.17-.28-.295-.276-.191-.582-.17-.894-.112-.249-.024-.44.195-.577.01-.12-.085-.359.063-.345.41.044.399-.262.5-.49l-.01-.057.03-.046c.076-.214.426-.083.456-.356-.013-.167.112-.27.162-.41.12-.285.035-.455-.307-.652.096.446.096.452-.295.556-.131.033-.271.027-.408.04a3.234 3.234 0 0 0-.2.154c-.004.11-.01.216-.016.328.005.104.137.241.025.307-.11.068-.195-.055-.25-.162-.087-.06-.114-.156-.13-.254-.036-.033-.085-.063-.13-.096v-.235c.009-.005.004-.011.015-.017-.014-.115.019-.197.145-.213.33-.068.191-.304.175-.492-.132-.06-.115-.252-.271-.288-.03-.008-.039-.013-.063-.019v-.46c.243-.254.323-.557.315-.905-.307-.391.003-.654.2-.936.024-.33-.17-.64-.362-.798a.443.443 0 0 1-.153-.211v-.134c.027-.088.098-.172.145-.263a.298.298 0 0 0-.017-.098c-.142-.11-.147-.23-.013-.356.2-.153.37-.35.59-.451.313-.145.228-.301.091-.495-.233-.14-.345-.307-.06-.504.191-.137.131-.276.035-.424-.136-.246.02-.479.025-.722 0-.063.131-.033.2-.003.126.003.251.008.375.01.248-.087.317.094.355.263.038.167-.112.181-.221.206.079.065.155.131.23.194.136.101.29.183.333.364.058.219.194.183.345.115l.156.093c.161-.236.15-.49.101-.755-.036-.184-.131-.372-.022-.561-.12-.156-.09-.263.101-.323.247.12.025.43.233.563.074-.224.12-.454.345-.582.227-.2.216-.44.112-.692-.383.024-.78-.05-1.155.079-.197.066-.287-.02-.355-.183-.05-.126-.088-.26-.148-.378-.142-.273-.323-.487-.679-.386-.016-.013-.024-.024-.04-.038l.04.038c-.016.033-.019.063-.024.09-.156.184-.312.176-.473.012-.22-.252-.422-.526-.35-.881.062-.329.163-.651.26-.974a.408.408 0 0 1 .035-.134c.27-.304.432-.632.342-1.05a.25.25 0 0 1 .09-.263c.014-.011.265-.025.596-.033-.005-.017-.013-.028-.013-.052-.017-.175.104-.32.2-.468.21-.315.139-.468-.236-.52-.18-.024-.386.058-.62-.134.254-.197.32-.52.585-.695.024-.085.1-.167.054-.27-.153-.088-.177.1-.279.13-.095.033-.183.02-.257-.054-.06-.058-.096-.123-.06-.202.055-.124.145-.176.276-.129.05.016.11.033.162.052-.017-.15-.033-.298-.039-.451-.003-.23.123-.345.348-.367.01-.186.066-.358.232-.476.175.05.285-.058.405-.142a.22.22 0 0 1-.024-.195c-.186-.32-.307-.667-.282-1.056.005-.043-.063-.09-.099-.134-.18-.016-.388-.093-.347.247.016.17.085.385-.17.517-.145-.203-.292-.408-.298-.67-.005-.225-.101-.334-.309-.427-.24-.104-.419-.296-.178-.58.017-.537.298-.939.649-1.31-.014-.537-.014-.537.352-.578.331.057.29.233.16.443-.006.003-.009.011-.015.017-.005.07-.016.14-.024.213.024.224-.03.506.35.473.016 0 .036.063.055.093.153.03.33.028.21.277-.1.2-.2.413.159.462.285.055.293.098.104.342-.041.112-.131.18-.235.235.019.126.084.189.213.233.317.106.64.052.955.076.156-.115.08-.35.24-.46.047-.065.096-.095.157-.098.084-.424.01-.509-.468-.536l-.427-.23c-.12.066-.164 0-.194-.104-.12-.427.156-.741.309-1.091.123-.15.227-.32.317-.493-.024-.033-.055-.063-.074-.098l-.005-.003c-.049-.02-.104-.033-.156-.052-.063.016-.115-.005-.158-.052-.088-.033-.096-.104-.063-.175.052-.096.131-.11.227-.063.066-.036.191-.071.191-.11.014-.344.225-.358.44-.366v-.005c.143-.18.107-.422.217-.613.085-.142.145-.32.372-.183.038.065.02.104-.052.117-.044.058-.088.12-.129.18-.005.151.104.091.181.102.24-.107.27.14.375.24.131.124.221.307.454.222.156-.13.282-.325.542-.194.347.175.407 1.062.07 1.294-.032.02-.106-.014-.16-.022a.689.689 0 0 0-.458.17c-.136.221-.14.47-.156.72.083.144-.076.306.041.443.154.068.266-.066.397-.08.14-.093.28-.057.416.014.142-.052.249-.025.161.145-.022.052-.07.085-.115.118a.33.33 0 0 1 .055.082c.05.14-.131.314-.317.314-.09 0-.175-.032-.257-.057-.09.115-.05.24.15.405.096.082.233.128.337.243.016-.033.022-.06.052-.096.013-.536.3-.938.648-1.304-.01-.537-.01-.537.35-.58.156.027.222.079.246.15.02 0 .03-.016.055-.022.02-.183.066-.358.23-.473.254.068.38-.186.583-.238l.216-.134c.016-.153.1-.241.257-.233.161.003.29-.065.432-.126.134.058.162.175.129.29a.695.695 0 0 0 .008.433c.019-.025.038-.044.057-.066a.155.155 0 0 1 .12-.12c.069-.069.132-.052.184.016.063.082.044.161-.033.23.005.076-.02.202.014.219.388.2.172.46.087.708-.035.104-.115.126-.21.134l.005.003c-.074.15-.192.23-.359.227-.128-.008-.24-.065-.24-.202 0-.123.016-.246.021-.37-.07.053-.136.107-.221.126a.328.328 0 0 0-.093.014c-.31.252-.48.577-.57.963-.004.038-.007.08-.013.12.014.03.03.063.044.096.03 0 .06.005.085.014.238-.11.347-.353.541-.509.178.555.257.596.725.345.02 0 .039 0 .058-.003.12-.235.221-.5.588-.613-.02.282-.183.435-.29.594.044 0 .085-.003.134-.005.063-.12.137-.085.216-.011.323.3.257.711.304 1.089-.041.309-.022.618.013.932.15.129.132.285.115.44.112.061.145.165.118.274-.005.008-.005.017-.005.028.055-.038.104-.077.17-.09.065-.041.134-.08.196-.12.09-.233.176-.463.266-.698.03-.044.06-.093.096-.14a.148.148 0 0 1 .024-.104c.09-.118.167-.134.224.03l.058.386c.019.118-.025.172-.15.156.013.024.013.044.019.068.06-.022.112-.046.164-.07.136.057.167.177.136.295-.13.46.096.708.493.859-.101.295-.342.249-.566.235-.208-.011-.312.194-.496.24a.355.355 0 0 0-.093.012 1.706 1.706 0 0 0-.571.96c-.003.044-.003.082-.008.123.013.033.027.063.038.099.033 0 .063.003.09.008.23-.11.342-.348.536-.504.072.21.129.326.197.4.028-.025.05-.058.09-.083h.006c.033-.043.074-.084.11-.128.081-.099.163-.112.254-.008.04.035.082.076.125.112l.096.016c.115-.09.235-.032.356-.008.063-.082.126-.06.197.003a.514.514 0 0 1 .257-.003c.175-.106.26-.276.356-.448.103-.2.341-.233.533-.32.063-.028.12.074.17.136.09.011.186.039.243-.07-.077-.282.038-.468.255-.652.164-.142.536-.292.134-.602-.066-.046.024-.136.068-.197.115-.145-.008-.26-.027-.385 0-.05.003-.096.019-.134-.08-.025-.17.043-.257.076-.09.118-.195.118-.274.003-.12-.172.014-.273.145-.36.052-.097.15-.121.249-.13l.087-.235c.033-.044.06-.09.096-.134a1.904 1.904 0 0 1-.377-1.24c.005-.043-.06-.09-.096-.133-.18-.017-.386-.093-.35.243.013.143.054.315-.071.44.12.138.156.354.402.346-.096.221-.32.314-.282.544-.02.074-.03.148-.06.213-.06.104-.156.186-.271.085-.17-.145-.016-.216.085-.29.131-.304.12-.58-.126-.818.016-.066.046-.096.082-.11-.112-.172-.222-.344-.227-.56 0-.219-.099-.334-.306-.427-.247-.107-.422-.295-.181-.58.014-.536.3-.938.654-1.31-.017-.536-.017-.536.345-.58.33.06.292.238.16.443 0 .008-.004.01-.01.022-.01.068-.014.137-.025.205.025.227-.03.514.35.479.017 0 .036.063.053.093.15.033.33.03.213.276-.101.2-.202.413.159.462.279.055.295.099.104.345a.455.455 0 0 1-.241.233c.022.128.09.188.216.235.32.104.643.052.96.077.153-.118.074-.35.241-.463.074-.12.186-.14.287-.052.123.107.05.205-.044.287-.013.028-.027.055-.043.083.04 0 .082-.003.115.008.298.079.246.218.046.363-.016.12.014.26-.137.326l-.005-.005c-.098.096-.172.23-.273.328.005.047-.005.093-.047.153-.049.069-.066.162.036.192.126.038.189-.068.186-.159-.025-.457.3-.618.656-.845.041.233.236.41-.013.583.03-.005.043-.022.074-.02.156.006.287-.068.426-.125.132.054.162.175.132.29-.066.219-.041.388.04.522.033-.068.075-.142.11-.21.025-.104.115-.148.2-.197.377-.255.421-.271.552.161.096.301.323.38.528.47.375.17.542.405.444.808-.036.136-.005.262.128.268.312.01.577.254.9.164.178-.063.37-.203.457.112h-.005.005c0 .074.005.15.008.227-.055.424-.23.517-.681.37-.082.002-.167.002-.252.007-.156.263-.432.468-.377.838.01.079-.126.164-.222.134-.11-.033-.068-.162-.087-.252-.143-.101-.211-.274-.37-.367-.145-.079-.134-.224-.019-.344a.435.435 0 0 1 .025-.093c-.011-.236-.18-.236-.348-.233a3.001 3.001 0 0 1-.098.071c.216.29.18.64.221.971-.04.315-.021.621.017.93.216.192.076.438.11.663-.023.224.13.41.133.629.005.164.047.35-.216.35-.066-.033-.07-.077-.019-.126l.016-.221c-.01-.022-.022-.028-.035-.041.005.013.019.03.013.035-.008.025-.06.033-.095.05-.008-.028-.025-.053-.028-.077-.019.013-.038.033-.063.04-.084.13-.177.11-.265.066.025.173.025.345.05.515-.044.314-.03.623.01.933.222.188.08.435.11.659a.727.727 0 0 0 .046.284c.156-.093.29-.227.462-.273.107-.069.211-.129.32-.192.017-.23.143-.35.373-.342.18.005.33-.057.487-.125-.115.03-.178-.066-.192-.247-.01-.09.027-.188.041-.281-.005-.238-.008-.474-.014-.712-.005-.194-.01-.385-.013-.571-.003-.148-.003-.29-.008-.435.046-.044.1-.09.142-.145h.134c.145.073.15.21.164.344.005.063.033.132.112.058.025-.028.02-.085.028-.132-.003-.043-.003-.09-.003-.136.027-.028.054-.06.084-.093-.03-.025-.057-.052-.084-.08-.156-.005-.326.022-.348-.202-.013-.172.066-.252.233-.26.074 0 .15-.003.23-.003.344.008.172.191.114.342.167-.003.35-.047.48.14.004.123-.014.232-.13.303-.068.104-.177.126-.287.137.008.186-.01.358-.202.468-.205.12-.222.325-.205.536.046.05.095.101.137.15.005.09.005.181.005.271-.069.162-.107.34-.26.452-.05.04-.088.063-.12.082.032-.017.068-.03.1-.044.198.08.241.254.192.421a.402.402 0 0 1 .24-.095c.017-.19.064-.362.233-.476.255.068.375-.184.58-.238.071-.044.145-.09.216-.132.011-.158.096-.238.258-.232.156.003.287-.069.426-.126.134.055.162.175.132.287-.126.465.095.714.492.865-.096.295-.336.249-.563.238-.211-.014-.312.194-.493.24a.59.59 0 0 0-.096.008c-.303.252-.481.58-.566.963l-.016.12c.016.03.027.064.04.1.03 0 .066.004.094.01.23-.112.339-.35.533-.506.183.558.263.59.725.342.164-.008.331-.014.493-.025.068-.12.134-.087.216-.01.32.3.254.71.309 1.085-.044.312-.03.624.008.933.221.186.082.435.11.654-.023.227.13.416.133.638.005.161.05.352-.216.352-.066-.038-.066-.082-.014-.13.005-.075.011-.149.014-.222-.074-.129-.14-.025-.205.01-.156.217-.3.02-.446-.01-.18-.036-.353-.15-.506.043-.063.197-.068.433-.358.452-.025.003-.05-.008-.074-.008a5.57 5.57 0 0 0 .019 1.245c.32.273.12.637.164.957-.036.328.192.605.202.925 0 .17.02.342-.087.44a.38.38 0 0 1 .057-.022c.307-.194.438-.142.602.241.156.11.312.145.476.011.017-.14.041-.282.06-.416.386.055.48.38.649.618v.881c-.085.055-.167.052-.23-.046-.167-.099-.06-.348-.24-.44a2.932 2.932 0 0 1-.137-.13c-.206-.169-.31.04-.444.118-.019.033-.024.063-.008.099.003.3.096.613-.065.892-.186.342-.2.67-.005 1.01-.192.29-.205.601-.085.921.014.036.01.077.014.112.125-.046.246-.109.377-.142.11-.035.175.03.216.134.041.11-.04.14-.112.156-.243.052-.44.238-.698.255-.003.093.005.205-.134.197-.084-.003-.109-.093-.114-.17 0-.096.013-.194.019-.287-.159-.08-.331-.195-.397.098-.025.12-.123.126-.216.156-.003.033-.003.063-.008.099.049.284-.227.333-.394.46.252.232.498.292.774.229.255-.052.487-.02.717.09.167.047.418-.063.377.315-.013.17.118-.09.208-.057.093 0 .203-.03.22.106.007.142-.113.175-.214.22 0 .108.019.202.128.256.08-.003.156-.01.233-.013.087.062.14.158.087.254-.087.17-.156.386-.35.44-.251.072-.306.28-.416.457.08.05.15.101.225.15.12-.092.221-.199.366-.267.132-.066.197-.25.307-.364v8.243a1.152 1.152 0 0 0-.145-.008c-.392.098-.657.33-.783.719-.022.082-.11.156-.008.249.096.093.164.022.255-.01.2-.061.435-.228.582.087a.54.54 0 0 0 .099 0v4.708a.5.5 0 0 1-.014.052c.112.448-.262.684-.432 1.012l-.082.159c.024.115.126.147.213.2.033-.118.104-.22.236-.22.038 0 .062.011.079.03v.767c-.008.005-.014.013-.025.022l-.161.103c.01.154.016.307.019.463l.126.107c.027.021.027.043.04.065v.14c-.007.022-.007.04-.024.057-.005.033-.016.066-.024.099-.03.038-.066.082-.093.123-.008.038-.014.085-.025.123a.145.145 0 0 1 .12.117c.017.014.03.028.047.039v.416l-.115.024c-.244.09-.413.233-.391.528 0 .011-.06.033-.088.058l.008.003c-.033.17-.038.328.134.43.378.062.246.27.137.467.115.057.11.156.096.26.082.104.164.208.027.33-.098.091-.167.19-.115.335.096.052.197.032.307.024v.46c-.09.189-.145.391-.194.599.038.082.038.189.139.24.033.017.041.03.055.05v.191c-.017.03-.041.063-.05.093a.764.764 0 0 0 .05.345v1.379c-.123.085-.252.17-.345.3.044.209-.216.214-.254.365.057.1.153.098.249.093.087-.162.221-.132.35-.11v3.822c-.008.014-.014.027-.022.038.005.124.005.238.005.356l.003.005h.014v1.27c-.055.142-.211.246-.176.426.044.23.23.468-.054.687-.036.03.035.145.115.153.068.011.098.044.115.085v5.657c-.11.069-.244.132-.345.208-.033.025-.028.099-.038.15.117.072.254.08.383.1v.292c-.085.005-.167.022-.181.15-.014.15.077.206.18.252v.34c-.166.06-.372.046-.478.207.019.17-.014.38.284.271a.71.71 0 0 1 .195-.046v2.97a.297.297 0 0 1-.06.072c.024.093.038.183.06.276v.9c-.047.038-.08.074-.143.123-.013.036-.024.074-.049.104-.12.153-.32.263-.194.523.085.186.24.175.386.18v3.113c-.036.05-.06.11-.036.19.115.243-.159.473-.036.716.03.008.05.02.071.027v6.613a2.37 2.37 0 0 1-.383.093c-.194.024-.44.29-.399.424.068.216.254.2.432.191.12 0 .241 0 .35.02v1a.325.325 0 0 1-.123.033c.033.192.025.372.099.49.016.03.016.044.024.066v.224c-.04.063-.12.104-.2.15-.065.036-.158.022-.226.055-.2.115-.301.31-.225.531.066.194.18.285.446.18.096-.038.159-.027.205.004v2.626c-.021.014-.046.035-.073.038l-.017.145h.005c.03.03.063.058.085.09v5.163c-.03 0-.06 0-.096-.003-.128.156.071.336-.04.498-.034.057 0 .178.087.191.019 0 .032.008.049.014v1.447c-.131.203-.123.457-.235.673-.085.156.049.26.205.249.008 0 .022-.008.03-.008v4.161c-.014.025-.003.06 0 .088v.757a.302.302 0 0 0 0 .165v.875a.854.854 0 0 1-.219.21c-.238.151-.022.343.088.49.052.069.095.099.131.104v.556c-.041.156-.025.333-.016.503 0 .044.008.071.016.101v9.674h-24.288zM203.307 228.914c-.019.01-.084-.025-.095-.052-.09-.222.046-.329.26-.432.004.2.051.38-.165.484M204.49 228.398c-.062.011-.106-.03-.111-.093-.008-.055.01-.112.07-.118.06-.005.107.033.118.055.014.101-.016.145-.076.156M200.398 226.8c.265-.177.26.058.26.176 0 .126-.145.26-.12.375.1.547-.299.645-.756.875.268-.572.033-1.026 0-1.521.274-.036.419.23.616.096M401.89 278.574l-10.623 4.183v.873h9.736v3.29h-9.736v3.407h-4.12v-3.406h-9.737v-3.291h9.737v-.873l-10.62-4.183 1.362-3.34 11.318 4.617 11.323-4.617zM561.681 288.106v-7.64h-3.72v-3.292h3.72V258.12h3.603v29.986zM556.128 283.866v3.294h-15.525v-17.139h15.525v3.293h-11.92v3.86h11.92v3.292h-11.92v3.4zM498.6 283.866v3.294h-19.954V271.222h19.955v3.293h-16.35v3.278h16.35v3.29h-16.35v2.783zM501.831 266.73h-26.416v-3.295h26.416zM436.36 272.443h-26.493v-3.292h11.293v-10.986h3.899v10.986h11.3zM416.564 284.812h13.104v-6.122h-13.104zm17 1.004v2.29h-20.898v-12.71h20.898v2.769zM396.487 263.26c0-2.221-3.704-3.02-7.175-3.02-3.48 0-7.2.799-7.2 3.02s3.72 3.02 7.2 3.02c3.471 0 7.175-.799 7.175-3.02m5.929 7.767v3.29h-26.493v-3.29h11.225v-1.48c-5.677-.463-9.239-2.834-9.239-6.317 0-3.874 4.437-6.377 11.307-6.377 6.853 0 11.28 2.503 11.28 6.377 0 3.485-3.563 5.857-9.228 6.317v1.48zM532.69 288.106h-3.605v-21.024h3.606zM522.084 272.99l-6.24 10.795v4.32h-3.611v-4.295l-6.246-10.82 3.127-1.79 4.919 8.61 4.916-8.61zM515.843 261.454v6.24h-3.608v-9.528h20.455v3.288zM524.422 288.106v-6.352h-3.562v-3.291h3.562v-11.381h3.6v21.024zM469.493 277.687h-4.04v10.42h-3.611v-29.943h3.61v16.229h4.041zM450.717 268.841c-2.631 0-3.57 3.704-3.57 7.173 0 3.483.939 7.206 3.57 7.206 2.635 0 3.579-3.723 3.579-7.206 0-3.469-.944-7.173-3.579-7.173m-.035 18.576c-4.58 0-7.548-4.438-7.548-11.31 0-6.847 2.968-11.274 7.548-11.274 4.607 0 7.583 4.427 7.583 11.274 0 6.872-2.976 11.31-7.583 11.31M602.3 346.625h8.403v5.321h-22.649v-5.32h8.413v-11.22l-10.095-17.484 5.058-2.889 7.945 13.911 7.942-13.911 5.069 2.889-10.087 17.448zM376.326 338.872l2.2-5.397 18.29 7.463 18.295-7.463 2.196 5.397-17.16 6.76v1.412h15.73v5.318h-38.125v-5.318h15.735v-1.412zM665.745 329.572h-19.263v17.052h19.263v5.324h-25.087v-27.692h25.087zM406.845 313.008c0-2.251-2.52-4.396-10.08-4.396-7.56 0-10.082 2.145-10.082 4.396 0 2.2 2.522 4.29 10.081 4.29 7.562 0 10.081-2.09 10.081-4.29m-33.567 13.567h19.946v-4.345c-8.738-.697-13.509-4.183-13.509-9.222 0-5.682 5.898-9.542 17.05-9.542 11.046 0 17.051 3.86 17.051 9.542 0 5.094-4.826 8.631-13.834 9.277v4.29h20.266v5.411h-46.97zM510.958 339.226h-18.606v7.455h18.606zm6.702 12.978h-31.956v-18.337h31.956zM491.978 319.711h-6.544v-15.12h33.835v5.63h-27.291z" style="fill:#231f20;fill-opacity:1;fill-rule:nonzero;stroke:none;stroke-width:2.73573" transform="matrix(1.33333 0 0 -1.33333 -130.676 499.501)"/><path d="M480.474 324.213h18.687v-9.329h6.81v9.329h18.11v5.575h-43.607zM564.031 344.536h-29.704v-5.148h29.704zM557.703 352.147h-17.049v-5.253h17.05zM543.87 329.468c0 2.093 1.392 3.808 5.414 3.808 3.915 0 5.417-1.715 5.417-3.808 0-2.145-1.502-3.86-5.417-3.86-4.022 0-5.414 1.715-5.414 3.86m8.954-8.366c5.255 1.018 8.095 4.342 8.095 8.366 0 4.826-4.126 8.631-11.635 8.631-7.614 0-11.632-3.805-11.632-8.63 0-4.132 2.894-7.508 8.47-8.419v-4.235h-12.653v-5.468h32.169v5.468h-12.814zM573.36 353.542h-6.38v-49.703h6.38v23.648h7.238v5.575h-7.239zM623.527 335.153h-4.183v17.85h-6.328v-47.929h6.328v24.553h4.183V303.84h6.434v49.703h-6.434zM653.366 319.548h-6.703v-14.745h31.795v5.633h-25.092zM677.44 340.566v12.923h-6.596v-36.836h6.596v18.23h7.452v5.683zM465.259 345.714v5.685h-32.202v-5.685h26.517v-15.55H428.43v-5.63h17.44v-20.428h6.755v20.428h19.197v5.63h-6.563z" style="fill:#231f20;fill-opacity:1;fill-rule:nonzero;stroke:none;stroke-width:2.73573" transform="matrix(1.33333 0 0 -1.33333 -130.676 499.501)"/></svg>